<?xml version="1.0" encoding="utf-8"?>
<!-- Generator: Adobe Illustrator 16.0.3, SVG Export Plug-In . SVG Version: 6.00 Build 0)  -->
<!DOCTYPE svg PUBLIC "-//W3C//DTD SVG 1.1//EN" "http://www.w3.org/Graphics/SVG/1.1/DTD/svg11.dtd">
<svg version="1.1" id="Layer_1" xmlns="http://www.w3.org/2000/svg" xmlns:xlink="http://www.w3.org/1999/xlink" x="0px" y="0px"
	 width="146.5px" height="37.5px" viewBox="0 0 146.5 37.5" enable-background="new 0 0 146.5 37.5" xml:space="preserve">
<g>
	<g>
		<path fill="#D6D6D6" d="M4.742,13.879c0,0.259-0.053,0.502-0.157,0.729c-0.105,0.228-0.249,0.427-0.431,0.599
			c-0.183,0.171-0.394,0.308-0.636,0.409c-0.241,0.102-0.498,0.152-0.771,0.152c-0.266,0-0.515-0.051-0.745-0.152
			c-0.231-0.102-0.437-0.238-0.614-0.409c-0.179-0.172-0.319-0.371-0.42-0.599c-0.102-0.228-0.152-0.471-0.152-0.729
			c0-0.267,0.051-0.515,0.152-0.746c0.101-0.23,0.241-0.434,0.42-0.608c0.178-0.175,0.383-0.312,0.614-0.41
			c0.23-0.098,0.479-0.146,0.745-0.146c0.273,0,0.53,0.049,0.771,0.146c0.242,0.099,0.453,0.235,0.636,0.41
			c0.182,0.175,0.325,0.378,0.431,0.608C4.689,13.364,4.742,13.612,4.742,13.879z M4.364,16.86v10.889H1.109V16.86H4.364z"/>
		<path fill="#D6D6D6" d="M6.988,27.749V16.86h2.017c0.202,0,0.372,0.046,0.509,0.137s0.232,0.228,0.289,0.409l0.188,0.63
			c0.21-0.195,0.427-0.378,0.651-0.546c0.224-0.168,0.464-0.31,0.719-0.425c0.256-0.115,0.532-0.207,0.83-0.273
			c0.297-0.066,0.621-0.1,0.971-0.1c0.596,0,1.122,0.104,1.581,0.31c0.458,0.207,0.845,0.494,1.16,0.861
			c0.314,0.367,0.553,0.805,0.714,1.313s0.241,1.059,0.241,1.653v6.92h-3.255v-6.92c0-0.531-0.122-0.946-0.367-1.244
			c-0.245-0.297-0.605-0.446-1.082-0.446c-0.356,0-0.692,0.077-1.008,0.231s-0.616,0.36-0.903,0.619v7.76H6.988z"/>
		<path fill="#D6D6D6" d="M22.99,27.917c-0.519,0-0.975-0.075-1.37-0.226s-0.729-0.364-0.998-0.641s-0.474-0.61-0.614-1.003
			c-0.14-0.392-0.21-0.829-0.21-1.313v-5.628h-0.924c-0.168,0-0.312-0.054-0.431-0.163c-0.119-0.108-0.178-0.268-0.178-0.478v-1.271
			l1.732-0.336l0.641-2.656c0.084-0.336,0.321-0.504,0.714-0.504h1.7v3.182h2.646v2.226h-2.646v5.407
			c0,0.252,0.062,0.461,0.185,0.625c0.122,0.165,0.299,0.247,0.53,0.247c0.118,0,0.219-0.013,0.299-0.037s0.15-0.053,0.21-0.084
			s0.115-0.06,0.168-0.084s0.114-0.036,0.184-0.036c0.099,0,0.177,0.022,0.236,0.067c0.06,0.046,0.121,0.118,0.184,0.216
			l0.987,1.543c-0.42,0.315-0.893,0.552-1.417,0.709C24.093,27.838,23.55,27.917,22.99,27.917z"/>
		<path fill="#D6D6D6" d="M32.23,16.692c0.721,0,1.381,0.112,1.979,0.336c0.599,0.225,1.113,0.55,1.543,0.977
			c0.431,0.427,0.767,0.95,1.009,1.57c0.241,0.619,0.362,1.321,0.362,2.104c0,0.245-0.011,0.445-0.032,0.599
			c-0.021,0.154-0.06,0.276-0.115,0.368c-0.056,0.091-0.131,0.153-0.226,0.188s-0.216,0.053-0.362,0.053h-6.279
			c0.105,0.91,0.382,1.569,0.83,1.979c0.447,0.409,1.025,0.614,1.732,0.614c0.378,0,0.703-0.046,0.977-0.137
			c0.272-0.091,0.516-0.192,0.729-0.305c0.213-0.112,0.409-0.214,0.588-0.305s0.365-0.137,0.562-0.137
			c0.259,0,0.455,0.095,0.588,0.284l0.945,1.165c-0.336,0.385-0.698,0.698-1.087,0.939c-0.389,0.242-0.787,0.431-1.197,0.567
			c-0.409,0.137-0.818,0.231-1.228,0.283c-0.41,0.053-0.8,0.079-1.171,0.079c-0.764,0-1.479-0.124-2.147-0.373
			c-0.669-0.248-1.253-0.617-1.754-1.107c-0.5-0.49-0.896-1.099-1.187-1.827c-0.29-0.728-0.436-1.575-0.436-2.541
			c0-0.728,0.124-1.417,0.373-2.068c0.248-0.651,0.605-1.222,1.071-1.712c0.465-0.489,1.028-0.878,1.69-1.165
			C30.65,16.836,31.397,16.692,32.23,16.692z M32.294,18.939c-0.623,0-1.11,0.177-1.46,0.53s-0.581,0.863-0.693,1.527h4.064
			c0-0.259-0.034-0.511-0.101-0.756s-0.175-0.463-0.325-0.656c-0.15-0.192-0.349-0.348-0.593-0.467
			C32.941,18.999,32.644,18.939,32.294,18.939z"/>
		<path fill="#D6D6D6" d="M42.353,12.03v15.719h-3.255V12.03H42.353z"/>
		<path fill="#D6D6D6" d="M48.337,12.03v15.719h-3.255V12.03H48.337z"/>
		<path fill="#D6D6D6" d="M54.7,13.879c0,0.259-0.053,0.502-0.157,0.729c-0.105,0.228-0.249,0.427-0.431,0.599
			c-0.183,0.171-0.394,0.308-0.636,0.409c-0.241,0.102-0.498,0.152-0.771,0.152c-0.266,0-0.515-0.051-0.745-0.152
			c-0.231-0.102-0.437-0.238-0.614-0.409c-0.179-0.172-0.319-0.371-0.42-0.599c-0.102-0.228-0.152-0.471-0.152-0.729
			c0-0.267,0.051-0.515,0.152-0.746c0.101-0.23,0.241-0.434,0.42-0.608c0.178-0.175,0.383-0.312,0.614-0.41
			c0.23-0.098,0.479-0.146,0.745-0.146c0.273,0,0.53,0.049,0.771,0.146c0.242,0.099,0.453,0.235,0.636,0.41
			c0.182,0.175,0.325,0.378,0.431,0.608C54.647,13.364,54.7,13.612,54.7,13.879z M54.322,16.86v10.889h-3.255V16.86H54.322z"/>
	</g>
	<g>
		<g>
			<path fill="#FF3131" d="M72.784,11.551l-0.576,2.664h-5.255l-2.916,13.534h-5.183l5.183-24.045
				c-2.771,0.108-4.679,1.691-4.679,7.451c0,1.836,0.468,2.124,0.504,2.447c-2.484,0-3.852-0.899-3.852-3.491
				c0-4.787,3.384-9.359,12.274-9.359c1.439,0,3.707,0.433,5.975,0.433c1.116,0,2.232-0.108,3.24-0.433
				c-0.504,1.513-0.612,3.708-3.42,4.32c-1.655,0-3.384-0.324-5.039-0.685l-1.512,7.163H72.784z"/>
			<path fill="#FF3131" d="M79.842,9.751l-0.468,2.232c1.26-1.08,2.628-2.232,4.355-2.232c1.62,0,2.483,1.332,2.483,2.7
				c0,1.26-0.827,2.628-2.592,2.628c-2.016,0-1.008-2.376-2.087-2.376c-1.08,0-1.729,0.54-2.628,1.367l-2.88,13.679h-5.184
				l3.815-17.998H79.842z"/>
			<path fill="#FF3131" d="M93.377,9.751l-2.592,12.238c-0.107,0.469-0.144,0.828-0.144,1.152c0,1.008,0.468,1.332,1.476,1.332
				c1.404,0,2.7-1.368,3.239-3.168h1.513c-2.052,5.867-5.616,6.659-7.56,6.659c-2.159,0-3.852-1.296-3.852-4.319
				c0-0.684,0.108-1.476,0.288-2.34l2.447-11.555H93.377z M91.758,2.084c1.583,0,2.879,1.296,2.879,2.88s-1.296,2.844-2.879,2.844
				c-1.584,0-2.844-1.26-2.844-2.844S90.174,2.084,91.758,2.084z"/>
			<path fill="#FF3131" d="M114.148,2.552l-4.14,19.438c-0.108,0.469-0.145,0.828-0.145,1.152c0,1.008,0.468,1.332,1.477,1.332
				c1.403,0,2.375-1.368,2.915-3.168h1.512c-2.052,5.867-5.291,6.443-7.234,6.443c-1.944,0-3.24-1.08-3.528-3.096
				c-1.079,1.656-2.771,3.312-5.327,3.312c-2.447,0-4.787-1.512-4.787-5.795c0-4.859,2.987-12.599,9.251-12.599
				c2.052,0,2.915,0.792,2.915,1.836v0.144l1.764-8.278L114.148,2.552z M104.969,21.306l1.765-8.243
				c-0.072-0.432-0.396-1.26-1.477-1.26c-3.06,0-5.039,6.479-5.039,9.863c0,2.771,1.152,2.808,1.8,2.808
				c1.008,0,2.483-1.008,2.951-2.988V21.306z"/>
			<path fill="#FF3131" d="M131.535,9.751l-3.563,16.702c2.196-0.792,3.528-2.016,4.536-5.147h1.512
				c-1.404,4.752-4.14,6.119-6.371,6.731l-0.54,2.592c-1.08,5.147-4.104,6.119-6.479,6.119c-2.195,0-4.031-1.152-4.031-3.492
				c0-3.023,3.167-4.535,5.867-5.363l0.432-1.907c-1.044,1.116-2.447,1.979-4.319,1.979c-2.447,0-4.787-1.512-4.787-5.795
				c0-4.859,2.987-12.599,9.251-12.599c2.052,0,2.915,0.792,2.915,1.836v0.216l0.396-1.872H131.535z M119.801,33.94
				c0.756,0,1.62-1.08,2.088-3.204l0.216-1.044c-1.835,0.685-3.527,1.62-3.527,3.06C118.577,33.256,119.009,33.94,119.801,33.94z
				 M119.117,21.666c0,2.771,1.152,2.808,1.8,2.808c0.972,0,2.376-0.972,2.88-2.808l1.836-8.531
				c-0.036-0.396-0.324-1.332-1.477-1.332C121.097,11.803,119.117,18.282,119.117,21.666z"/>
			<path fill="#FF3131" d="M139.564,24.546c1.368,0,3.096-0.9,4.248-1.908c-0.756,4.104-3.348,5.327-6.228,5.327
				c-3.348,0-5.579-1.655-5.579-5.723c0-4.14,2.34-12.814,9.719-12.814c3.203,0,3.96,1.655,3.96,3.455
				c0,4.176-3.96,7.343-8.279,7.595c-0.036,0.36-0.072,0.756-0.072,1.08C137.333,23.825,138.305,24.546,139.564,24.546z
				 M142.013,11.335c-1.8,0-3.6,3.996-4.355,7.415c2.808-0.144,5.255-2.915,5.255-5.939
				C142.912,11.911,142.696,11.335,142.013,11.335z"/>
		</g>
		<g>
			<linearGradient id="SVGID_1_" gradientUnits="userSpaceOnUse" x1="64.2529" y1="36.7334" x2="135.1471" y2="-5.8641">
				<stop  offset="0" style="stop-color:#FF3131"/>
				<stop  offset="0.5645" style="stop-color:#FF2831"/>
				<stop  offset="0.9944" style="stop-color:#FF1D31"/>
			</linearGradient>
			<path fill="url(#SVGID_1_)" d="M72.784,11.551l-0.576,2.664h-5.255l-2.916,13.534h-5.183l5.183-24.045
				c-2.771,0.108-4.679,1.691-4.679,7.451c0,1.836,0.468,2.124,0.504,2.447c-2.484,0-3.852-0.899-3.852-3.491
				c0-4.787,3.384-9.359,12.274-9.359c1.439,0,3.707,0.433,5.975,0.433c1.116,0,2.232-0.108,3.24-0.433
				c-0.504,1.513-0.612,3.708-3.42,4.32c-1.655,0-3.384-0.324-5.039-0.685l-1.512,7.163H72.784z"/>
			<linearGradient id="SVGID_2_" gradientUnits="userSpaceOnUse" x1="64.2529" y1="36.7334" x2="135.1471" y2="-5.8641">
				<stop  offset="0" style="stop-color:#FF3131"/>
				<stop  offset="0.5645" style="stop-color:#FF2831"/>
				<stop  offset="0.9944" style="stop-color:#FF1D31"/>
			</linearGradient>
			<path fill="url(#SVGID_2_)" d="M79.842,9.751l-0.468,2.232c1.26-1.08,2.628-2.232,4.355-2.232c1.62,0,2.483,1.332,2.483,2.7
				c0,1.26-0.827,2.628-2.592,2.628c-2.016,0-1.008-2.376-2.087-2.376c-1.08,0-1.729,0.54-2.628,1.367l-2.88,13.679h-5.184
				l3.815-17.998H79.842z"/>
			<linearGradient id="SVGID_3_" gradientUnits="userSpaceOnUse" x1="64.2529" y1="36.7334" x2="135.1471" y2="-5.8641">
				<stop  offset="0" style="stop-color:#FF3131"/>
				<stop  offset="0.5645" style="stop-color:#FF2831"/>
				<stop  offset="0.9944" style="stop-color:#FF1D31"/>
			</linearGradient>
			<path fill="url(#SVGID_3_)" d="M93.377,9.751l-2.592,12.238c-0.107,0.469-0.144,0.828-0.144,1.152
				c0,1.008,0.468,1.332,1.476,1.332c1.404,0,2.7-1.368,3.239-3.168h1.513c-2.052,5.867-5.616,6.659-7.56,6.659
				c-2.159,0-3.852-1.296-3.852-4.319c0-0.684,0.108-1.476,0.288-2.34l2.447-11.555H93.377z M91.758,2.084
				c1.583,0,2.879,1.296,2.879,2.88s-1.296,2.844-2.879,2.844c-1.584,0-2.844-1.26-2.844-2.844S90.174,2.084,91.758,2.084z"/>
			<linearGradient id="SVGID_4_" gradientUnits="userSpaceOnUse" x1="64.2529" y1="36.7334" x2="135.1471" y2="-5.8641">
				<stop  offset="0" style="stop-color:#FF3131"/>
				<stop  offset="0.5645" style="stop-color:#FF2831"/>
				<stop  offset="0.9944" style="stop-color:#FF1D31"/>
			</linearGradient>
			<path fill="url(#SVGID_4_)" d="M114.148,2.552l-4.14,19.438c-0.108,0.469-0.145,0.828-0.145,1.152
				c0,1.008,0.468,1.332,1.477,1.332c1.403,0,2.375-1.368,2.915-3.168h1.512c-2.052,5.867-5.291,6.443-7.234,6.443
				c-1.944,0-3.24-1.08-3.528-3.096c-1.079,1.656-2.771,3.312-5.327,3.312c-2.447,0-4.787-1.512-4.787-5.795
				c0-4.859,2.987-12.599,9.251-12.599c2.052,0,2.915,0.792,2.915,1.836v0.144l1.764-8.278L114.148,2.552z M104.969,21.306
				l1.765-8.243c-0.072-0.432-0.396-1.26-1.477-1.26c-3.06,0-5.039,6.479-5.039,9.863c0,2.771,1.152,2.808,1.8,2.808
				c1.008,0,2.483-1.008,2.951-2.988V21.306z"/>
			<linearGradient id="SVGID_5_" gradientUnits="userSpaceOnUse" x1="64.2529" y1="36.7334" x2="135.1471" y2="-5.8641">
				<stop  offset="0" style="stop-color:#FF3131"/>
				<stop  offset="0.5645" style="stop-color:#FF2831"/>
				<stop  offset="0.9944" style="stop-color:#FF1D31"/>
			</linearGradient>
			<path fill="url(#SVGID_5_)" d="M131.535,9.751l-3.563,16.702c2.196-0.792,3.528-2.016,4.536-5.147h1.512
				c-1.404,4.752-4.14,6.119-6.371,6.731l-0.54,2.592c-1.08,5.147-4.104,6.119-6.479,6.119c-2.195,0-4.031-1.152-4.031-3.492
				c0-3.023,3.167-4.535,5.867-5.363l0.432-1.907c-1.044,1.116-2.447,1.979-4.319,1.979c-2.447,0-4.787-1.512-4.787-5.795
				c0-4.859,2.987-12.599,9.251-12.599c2.052,0,2.915,0.792,2.915,1.836v0.216l0.396-1.872H131.535z M119.801,33.94
				c0.756,0,1.62-1.08,2.088-3.204l0.216-1.044c-1.835,0.685-3.527,1.62-3.527,3.06C118.577,33.256,119.009,33.94,119.801,33.94z
				 M119.117,21.666c0,2.771,1.152,2.808,1.8,2.808c0.972,0,2.376-0.972,2.88-2.808l1.836-8.531
				c-0.036-0.396-0.324-1.332-1.477-1.332C121.097,11.803,119.117,18.282,119.117,21.666z"/>
			<linearGradient id="SVGID_6_" gradientUnits="userSpaceOnUse" x1="64.2529" y1="36.7334" x2="135.1471" y2="-5.8641">
				<stop  offset="0" style="stop-color:#FF3131"/>
				<stop  offset="0.5645" style="stop-color:#FF2831"/>
				<stop  offset="0.9944" style="stop-color:#FF1D31"/>
			</linearGradient>
			<path fill="url(#SVGID_6_)" d="M139.564,24.546c1.368,0,3.096-0.9,4.248-1.908c-0.756,4.104-3.348,5.327-6.228,5.327
				c-3.348,0-5.579-1.655-5.579-5.723c0-4.14,2.34-12.814,9.719-12.814c3.203,0,3.96,1.655,3.96,3.455
				c0,4.176-3.96,7.343-8.279,7.595c-0.036,0.36-0.072,0.756-0.072,1.08C137.333,23.825,138.305,24.546,139.564,24.546z
				 M142.013,11.335c-1.8,0-3.6,3.996-4.355,7.415c2.808-0.144,5.255-2.915,5.255-5.939
				C142.912,11.911,142.696,11.335,142.013,11.335z"/>
		</g>
	</g>
</g>
<g>
</g>
<g>
</g>
<g>
</g>
<g>
</g>
<g>
</g>
<g>
</g>
<g>
</g>
<g>
</g>
<g>
</g>
<g>
</g>
<g>
</g>
<g>
</g>
<g>
</g>
<g>
</g>
<g>
</g>
</svg>
