<?xml version="1.0" encoding="utf-8"?>
<!-- Generator: Adobe Illustrator 16.0.3, SVG Export Plug-In . SVG Version: 6.00 Build 0)  -->
<!DOCTYPE svg PUBLIC "-//W3C//DTD SVG 1.1//EN" "http://www.w3.org/Graphics/SVG/1.1/DTD/svg11.dtd">
<svg version="1.1" id="Layer_1" xmlns="http://www.w3.org/2000/svg" xmlns:xlink="http://www.w3.org/1999/xlink" x="0px" y="0px"
	 width="166.893px" height="164.643px" viewBox="0 0 166.893 164.643" enable-background="new 0 0 166.893 164.643"
	 xml:space="preserve">
<g>
	<g>
		<path fill="#0F0F0F" d="M70.631,96.44V7.829c0-1.345-1.089-2.435-2.435-2.435H8.798c-1.344,0-2.435,1.09-2.435,2.435V96.44
			c0,1.234,0.919,2.252,2.109,2.41v1.737c-1.19,0.158-2.109,1.177-2.109,2.409v51.869c0,1.346,1.091,2.435,2.435,2.435h2.158
			c0.226,1.11,1.208,1.947,2.386,1.947s2.16-0.837,2.385-1.947h45.541c0.225,1.11,1.207,1.947,2.385,1.947s2.16-0.837,2.386-1.947
			h2.158c1.344,0,2.435-1.089,2.435-2.435v-51.869c0-1.232-0.919-2.251-2.109-2.41v-1.736C69.712,98.692,70.631,97.675,70.631,96.44
			L70.631,96.44z M65.762,152.432H11.233v-26.778h0.237c3.538,0,6.416-2.878,6.416-6.416v-13.806h47.876V152.432z M14.64,105.432
			v13.806c0,1.749-1.422,3.17-3.17,3.17h-0.237v-16.976H14.64z M13.342,100.563v-1.688h50.311v1.688H13.342z M14.64,94.006h-3.407
			V75.667h0.237c1.748,0,3.17,1.424,3.17,3.172V94.006z M65.762,10.263v83.743H17.886V78.839c0-3.538-2.878-6.418-6.416-6.418
			h-0.237V10.263H65.762z M65.762,10.263"/>
		<path fill="#0F0F0F" d="M38.498,27.629c2.953,0,5.355-2.402,5.355-5.355c0-2.954-2.402-5.356-5.355-5.356
			s-5.355,2.402-5.355,5.356C33.142,25.227,35.544,27.629,38.498,27.629L38.498,27.629z M38.498,20.162
			c1.163,0,2.109,0.948,2.109,2.111s-0.946,2.109-2.109,2.109s-2.109-0.946-2.109-2.109S37.334,20.162,38.498,20.162L38.498,20.162z
			 M38.498,20.162"/>
	</g>
	<path fill="#0F0F0F" d="M160.529,94.183l-57.633-9.979l12.844-8.758c-0.764-0.359-1.549-0.73-2.371-1.119
		c-2.043-0.85-4.246-1.854-6.652-2.7c-0.6-0.224-1.207-0.45-1.82-0.679c-0.617-0.229-1.252-0.417-1.891-0.63
		c-1.279-0.409-2.58-0.873-3.934-1.227c-2.689-0.785-5.51-1.494-8.41-2.083c-1.451-0.291-2.916-0.596-4.404-0.811l-2.233-0.357
		l-2.25-0.278c-3.007-0.389-6.04-0.583-9.043-0.726c-2.999-0.084-5.97-0.111-8.846,0.033c-2.879,0.102-5.66,0.363-8.3,0.654
		c-2.636,0.32-5.127,0.699-7.416,1.133c-4.578,0.864-8.355,1.885-10.963,2.711c-2.614,0.818-4.065,1.43-4.065,1.43
		s1.33-0.842,3.794-2.092c2.46-1.257,6.061-2.908,10.541-4.555c2.239-0.824,4.7-1.631,7.336-2.406
		c2.641-0.75,5.453-1.494,8.405-2.098c2.947-0.645,6.032-1.133,9.188-1.571c3.16-0.375,6.396-0.704,9.65-0.828l2.443-0.104
		c0.814-0.007,1.629-0.013,2.443-0.019c1.629-0.035,3.25,0.026,4.863,0.078c3.227,0.111,6.404,0.367,9.475,0.73
		c1.543,0.143,3.039,0.404,4.516,0.619c0.738,0.117,1.473,0.209,2.189,0.344c0.717,0.139,1.424,0.274,2.123,0.408
		c2.811,0.496,5.416,1.182,7.848,1.755c1.203,0.339,2.354,0.663,3.447,0.97c0.549,0.156,1.084,0.308,1.604,0.455
		c0.514,0.167,1.01,0.33,1.492,0.488c0.018,0.005,0.033,0.01,0.051,0.016l2.906-17.048L160.529,94.183z"/>
</g>
<g>
</g>
<g>
</g>
<g>
</g>
<g>
</g>
<g>
</g>
<g>
</g>
<g>
</g>
<g>
</g>
<g>
</g>
<g>
</g>
<g>
</g>
<g>
</g>
<g>
</g>
<g>
</g>
<g>
</g>
</svg>
