<?xml version="1.0" encoding="utf-8"?>
<!-- Generator: Adobe Illustrator 16.0.3, SVG Export Plug-In . SVG Version: 6.00 Build 0)  -->
<!DOCTYPE svg PUBLIC "-//W3C//DTD SVG 1.1//EN" "http://www.w3.org/Graphics/SVG/1.1/DTD/svg11.dtd">
<svg version="1.1" id="Layer_1" xmlns="http://www.w3.org/2000/svg" xmlns:xlink="http://www.w3.org/1999/xlink" x="0px" y="0px"
	 width="73.5px" height="160.833px" viewBox="0 0 73.5 160.833" enable-background="new 0 0 73.5 160.833" xml:space="preserve">
<g>
	<path fill="#0F0F0F" d="M68.884,94.535V5.924c0-1.345-1.089-2.435-2.435-2.435H7.051c-1.344,0-2.435,1.09-2.435,2.435v88.611
		c0,1.234,0.919,2.252,2.109,2.41v1.738c-1.19,0.158-2.109,1.176-2.109,2.408v51.869c0,1.346,1.091,2.436,2.435,2.436h2.158
		c0.226,1.109,1.208,1.947,2.386,1.947s2.16-0.838,2.385-1.947h45.541c0.225,1.109,1.207,1.947,2.385,1.947s2.16-0.838,2.386-1.947
		h2.158c1.344,0,2.435-1.09,2.435-2.436v-51.869c0-1.232-0.919-2.25-2.109-2.41v-1.736C67.965,96.787,68.884,95.77,68.884,94.535
		L68.884,94.535z M64.015,150.527H9.485v-26.779h0.237c3.538,0,6.416-2.877,6.416-6.416v-13.805h47.876V150.527z M12.893,103.527
		v13.805c0,1.75-1.422,3.17-3.17,3.17H9.485v-16.975H12.893z M11.595,98.658v-1.688h50.311v1.688H11.595z M12.893,92.102H9.485
		V73.762h0.237c1.748,0,3.17,1.424,3.17,3.172V92.102z M64.015,8.358v83.744H16.139V76.934c0-3.538-2.878-6.418-6.416-6.418H9.485
		V8.358H64.015z M64.015,8.358"/>
	<path fill="#0F0F0F" d="M36.75,25.724c2.953,0,5.355-2.402,5.355-5.355c0-2.954-2.402-5.356-5.355-5.356s-5.355,2.402-5.355,5.356
		C31.395,23.322,33.797,25.724,36.75,25.724L36.75,25.724z M36.75,18.257c1.163,0,2.109,0.948,2.109,2.111s-0.946,2.109-2.109,2.109
		s-2.109-0.946-2.109-2.109S35.587,18.257,36.75,18.257L36.75,18.257z M36.75,18.257"/>
</g>
<g>
</g>
<g>
</g>
<g>
</g>
<g>
</g>
<g>
</g>
<g>
</g>
<g>
</g>
<g>
</g>
<g>
</g>
<g>
</g>
<g>
</g>
<g>
</g>
<g>
</g>
<g>
</g>
<g>
</g>
</svg>
