<?xml version="1.0" encoding="utf-8"?>
<!-- Generator: Adobe Illustrator 16.0.3, SVG Export Plug-In . SVG Version: 6.00 Build 0)  -->
<!DOCTYPE svg PUBLIC "-//W3C//DTD SVG 1.1//EN" "http://www.w3.org/Graphics/SVG/1.1/DTD/svg11.dtd">
<svg version="1.1" id="Layer_1" xmlns="http://www.w3.org/2000/svg" xmlns:xlink="http://www.w3.org/1999/xlink" x="0px" y="0px"
	 width="89.125px" height="84px" viewBox="0 0 89.125 84" enable-background="new 0 0 89.125 84" xml:space="preserve">
<g>
	<path fill="#0F0F0F" d="M46.31,73.992l-2.511-3.125c-8.692-10.809-8.702-10.826-8.788-10.961c-1.806-2.611-1.271-6.295,1.254-8.328
		c2.579-2.074,6.329-1.77,8.546,0.682c0.063,0.078,2.854,3.541,5.644,7.006c2.73,3.395,5.462,6.786,5.567,6.916l-2.935,2.438
		c-0.024-0.03-2.814-3.496-5.604-6.959c-2.73-3.393-5.459-6.784-5.566-6.917c-0.797-0.886-2.259-1.001-3.258-0.196
		c-0.978,0.789-1.186,2.215-0.476,3.248c0.216,0.271,5.382,6.691,8.588,10.685c1.467,1.822,2.527,3.142,2.55,3.167L46.31,73.992z
		 M46.31,73.992"/>
	<path fill="#0F0F0F" d="M44.421,57.898c-0.22-0.263-16.667-20.719-16.759-20.846c-1.867-2.707-1.329-6.396,1.201-8.434
		c2.572-2.074,6.324-1.766,8.536,0.697c0.098,0.104,11.144,13.827,11.234,13.944l-2.993,2.361
		c-0.179-0.223-10.818-13.437-11.127-13.81c-0.811-0.906-2.264-1.025-3.26-0.22c-0.982,0.788-1.192,2.219-0.478,3.255
		c0.262,0.33,16.314,20.287,16.582,20.615L44.421,57.898z M44.421,57.898"/>
	<path fill="#0F0F0F" d="M57.05,46.036c-0.062-0.071-6.735-8.37-6.885-8.592c-1.827-2.644-1.288-6.325,1.239-8.362
		c2.576-2.08,6.329-1.778,8.538,0.688c0.054,0.06,0.063,0.072,6.219,7.713l2.977,3.699l-2.933,2.438
		c-0.02-0.022-1.359-1.688-3.015-3.74c-2.594-3.221-5.967-7.412-6.136-7.617c-0.803-0.895-2.253-1.018-3.26-0.209
		c-0.979,0.789-1.188,2.217-0.476,3.248c0.245,0.313,6.513,8.109,6.68,8.313L57.05,46.036z M57.05,46.036"/>
	<g>
		<path fill="#0F0F0F" d="M50.331,51.464c-0.088-0.108-11.195-13.917-11.303-14.069c-1.845-2.674-1.307-6.357,1.22-8.396
			c2.589-2.074,6.336-1.766,8.538,0.691c0.103,0.107,11.174,13.863,11.255,13.971l-3.011,2.342
			c-0.216-0.271-10.807-13.433-11.125-13.819c-0.811-0.896-2.266-1.019-3.265-0.21c-0.978,0.788-1.188,2.219-0.476,3.25
			c0.265,0.335,10.873,13.52,11.101,13.803L50.331,51.464z M50.331,51.464"/>
		<path fill="#0F0F0F" d="M64.704,82.79c-0.859,0-1.722-0.044-2.589-0.141c-6.275-0.677-11.911-3.763-15.867-8.679l2.972-2.391
			c3.318,4.122,8.043,6.709,13.307,7.276c5.264,0.571,10.43-0.94,14.554-4.259c7.351-5.915,9.626-16.178,5.452-24.461
			c-1.195-1.49-10.696-13.305-10.999-13.67c-0.807-0.896-2.254-1.021-3.258-0.217c-0.982,0.789-1.193,2.22-0.478,3.251
			c0.583,0.849,0.394,2.007-0.427,2.618c-1.111,0.833-1.998,0.277-2.701-0.46l-0.013,0.01c-0.02-0.029-0.036-0.054-0.056-0.081
			c-0.201-0.22-0.388-0.451-0.562-0.663l0.115-0.126c-1.205-2.557-0.534-5.699,1.729-7.521c2.574-2.074,6.329-1.775,8.533,0.699
			c0.039,0.035,0.076,0.078,11.211,13.921c0.08,0.101,0.149,0.208,0.208,0.321c5.116,9.92,2.441,22.262-6.366,29.35
			C75.233,80.98,70.068,82.79,64.704,82.79L64.704,82.79z M64.704,82.79"/>
		<path fill="#0F0F0F" d="M22.179,45.348c-2.476-1.141-4.602-2.807-6.321-4.943c-2.941-3.654-4.284-8.238-3.779-12.907
			c0.505-4.666,2.797-8.856,6.457-11.798c3.654-2.944,8.241-4.263,12.904-3.785c4.669,0.508,8.857,2.798,11.801,6.455
			c1.632,2.025,2.771,4.324,3.386,6.836l-3.706,0.908c-0.48-1.964-1.372-3.763-2.65-5.354c-2.305-2.862-5.584-4.658-9.238-5.053
			c-3.652-0.387-7.243,0.657-10.106,2.964c-2.863,2.303-4.655,5.584-5.053,9.239c-0.395,3.653,0.653,7.244,2.959,10.105
			c1.347,1.675,3.01,2.978,4.944,3.87L22.179,45.348z M22.179,45.348"/>
		<path fill="#0F0F0F" d="M24.761,57.803c-6.866-1.188-13.06-4.84-17.437-10.277c-9.916-12.318-7.958-30.411,4.367-40.333
			c12.327-9.92,30.415-7.958,40.332,4.364c2.102,2.611,3.711,5.525,4.791,8.672l-3.61,1.236c-0.933-2.724-2.331-5.252-4.151-7.518
			C40.451,3.266,24.766,1.566,14.082,10.163c-10.685,8.6-12.385,24.287-3.785,34.972c3.795,4.715,9.163,7.882,15.115,8.913
			L24.761,57.803z M24.761,57.803"/>
	</g>
</g>
<g>
</g>
<g>
</g>
<g>
</g>
<g>
</g>
<g>
</g>
<g>
</g>
<g>
</g>
<g>
</g>
<g>
</g>
<g>
</g>
<g>
</g>
<g>
</g>
<g>
</g>
<g>
</g>
<g>
</g>
</svg>
