<?xml version="1.0" encoding="utf-8"?>
<!-- Generator: Adobe Illustrator 16.0.3, SVG Export Plug-In . SVG Version: 6.00 Build 0)  -->
<!DOCTYPE svg PUBLIC "-//W3C//DTD SVG 1.1//EN" "http://www.w3.org/Graphics/SVG/1.1/DTD/svg11.dtd">
<svg version="1.1" id="Layer_1" xmlns="http://www.w3.org/2000/svg" xmlns:xlink="http://www.w3.org/1999/xlink" x="0px" y="0px"
	 width="60.25px" height="56px" viewBox="0 0 60.25 56" enable-background="new 0 0 60.25 56" xml:space="preserve">
<g>
	<g>
		<path fill="#EE3937" d="M3.925,32.793H8.51v18.34c0,1.081,0.885,1.966,1.965,1.966h13.427c1.08,0,1.965-0.885,1.965-1.966V37.706
			h8.188v13.427c0,1.081,0.884,1.966,1.965,1.966h12.771c1.081,0,1.965-0.885,1.965-1.966v-18.34h5.568
			c0.785,0,1.506-0.49,1.801-1.211s0.131-1.572-0.426-2.129L32.09,3.483c-0.754-0.753-1.998-0.786-2.751-0.032L2.583,29.421
			c-0.589,0.556-0.753,1.408-0.458,2.161C2.418,32.336,3.139,32.793,3.925,32.793L3.925,32.793z M30.648,7.642l20.959,21.221h-2.816
			c-1.08,0-1.965,0.885-1.965,1.966v18.339h-8.842V35.741c0-1.081-0.885-1.966-1.965-1.966H23.902c-1.081,0-1.965,0.885-1.965,1.966
			v13.427H12.44V30.829c0-1.081-0.884-1.966-1.965-1.966H8.772L30.648,7.642z M30.648,7.642"/>
	</g>
</g>
<g>
</g>
<g>
</g>
<g>
</g>
<g>
</g>
<g>
</g>
<g>
</g>
<g>
</g>
<g>
</g>
<g>
</g>
<g>
</g>
<g>
</g>
<g>
</g>
<g>
</g>
<g>
</g>
<g>
</g>
</svg>
