<?xml version="1.0" encoding="utf-8"?>
<!-- Generator: Adobe Illustrator 16.0.3, SVG Export Plug-In . SVG Version: 6.00 Build 0)  -->
<!DOCTYPE svg PUBLIC "-//W3C//DTD SVG 1.1//EN" "http://www.w3.org/Graphics/SVG/1.1/DTD/svg11.dtd">
<svg version="1.1" id="Layer_1" xmlns="http://www.w3.org/2000/svg" xmlns:xlink="http://www.w3.org/1999/xlink" x="0px" y="0px"
	 width="166.893px" height="164.643px" viewBox="0 0 166.893 164.643" enable-background="new 0 0 166.893 164.643"
	 xml:space="preserve">
<g>
	<g>
		<path fill="#0F0F0F" d="M68.733,96.44V7.829c0-1.345-1.089-2.435-2.435-2.435H6.9c-1.344,0-2.435,1.09-2.435,2.435V96.44
			c0,1.234,0.919,2.252,2.109,2.41v1.737c-1.19,0.158-2.109,1.177-2.109,2.409v51.869c0,1.346,1.091,2.435,2.435,2.435h2.158
			c0.226,1.11,1.208,1.947,2.386,1.947s2.16-0.837,2.385-1.947H59.37c0.225,1.11,1.207,1.947,2.385,1.947s2.16-0.837,2.386-1.947
			h2.158c1.344,0,2.435-1.089,2.435-2.435v-51.869c0-1.232-0.919-2.251-2.109-2.41v-1.736C67.814,98.692,68.733,97.675,68.733,96.44
			L68.733,96.44z M63.864,152.432H9.335v-26.778h0.237c3.538,0,6.416-2.878,6.416-6.416v-13.806h47.876V152.432z M12.742,105.432
			v13.806c0,1.749-1.422,3.17-3.17,3.17H9.335v-16.976H12.742z M11.444,100.563v-1.688h50.311v1.688H11.444z M12.742,94.006H9.335
			V75.667h0.237c1.748,0,3.17,1.424,3.17,3.172V94.006z M63.864,10.263v83.743H15.988V78.839c0-3.538-2.878-6.418-6.416-6.418H9.335
			V10.263H63.864z M63.864,10.263"/>
		<path fill="#0F0F0F" d="M36.6,27.629c2.953,0,5.355-2.402,5.355-5.355c0-2.954-2.402-5.356-5.355-5.356s-5.355,2.402-5.355,5.356
			C31.244,25.227,33.646,27.629,36.6,27.629L36.6,27.629z M36.6,20.162c1.163,0,2.109,0.948,2.109,2.111s-0.946,2.109-2.109,2.109
			s-2.109-0.946-2.109-2.109S35.437,20.162,36.6,20.162L36.6,20.162z M36.6,20.162"/>
	</g>
	<path fill="#0F0F0F" d="M35.04,77.516l57.631-9.979L79.829,58.78c0.763-0.36,1.549-0.73,2.37-1.119
		c2.043-0.85,4.247-1.854,6.652-2.701c0.6-0.224,1.206-0.45,1.821-0.679c0.617-0.229,1.252-0.417,1.89-0.629
		c1.279-0.409,2.581-0.873,3.934-1.227c2.689-0.785,5.509-1.494,8.409-2.083c1.452-0.292,2.918-0.597,4.405-0.811l2.233-0.358
		l2.25-0.278c3.008-0.389,6.041-0.583,9.043-0.726c2.998-0.084,5.971-0.111,8.846,0.033c2.88,0.101,5.66,0.363,8.301,0.655
		c2.635,0.319,5.127,0.699,7.415,1.133c4.578,0.864,8.355,1.884,10.964,2.71c2.613,0.819,4.064,1.431,4.064,1.431
		s-1.33-0.843-3.795-2.092c-2.459-1.257-6.061-2.908-10.54-4.554c-2.239-0.824-4.7-1.632-7.337-2.407
		c-2.641-0.75-5.453-1.494-8.404-2.097c-2.947-0.645-6.032-1.134-9.189-1.572c-3.159-0.375-6.396-0.704-9.648-0.828l-2.444-0.104
		c-0.815-0.006-1.629-0.013-2.442-0.018c-1.631-0.036-3.25,0.026-4.865,0.078c-3.225,0.112-6.404,0.367-9.474,0.73
		c-1.543,0.144-3.039,0.405-4.517,0.619c-0.737,0.117-1.473,0.209-2.189,0.344c-0.715,0.139-1.424,0.275-2.122,0.409
		c-2.811,0.496-5.415,1.181-7.848,1.755c-1.202,0.339-2.353,0.663-3.447,0.97c-0.549,0.156-1.084,0.307-1.604,0.455
		c-0.512,0.167-1.01,0.33-1.491,0.488c-0.018,0.005-0.033,0.01-0.051,0.016l-2.907-17.047L35.04,77.516z"/>
</g>
<g>
</g>
<g>
</g>
<g>
</g>
<g>
</g>
<g>
</g>
<g>
</g>
<g>
</g>
<g>
</g>
<g>
</g>
<g>
</g>
<g>
</g>
<g>
</g>
<g>
</g>
<g>
</g>
<g>
</g>
</svg>
