<?xml version="1.0" encoding="utf-8"?>
<!-- Generator: Adobe Illustrator 16.0.3, SVG Export Plug-In . SVG Version: 6.00 Build 0)  -->
<!DOCTYPE svg PUBLIC "-//W3C//DTD SVG 1.1//EN" "http://www.w3.org/Graphics/SVG/1.1/DTD/svg11.dtd">
<svg version="1.1" id="Layer_1" xmlns="http://www.w3.org/2000/svg" xmlns:xlink="http://www.w3.org/1999/xlink" x="0px" y="0px"
	 width="89.758px" height="63.215px" viewBox="0 0 89.758 63.215" enable-background="new 0 0 89.758 63.215" xml:space="preserve">
<g>
	<rect fill="#0F0F0F" width="4.243" height="56.441"/>
	<rect x="9.101" fill="#0F0F0F" width="4.857" height="56.441"/>
	<rect x="15.051" fill="#0F0F0F" width="1.027" height="56.441"/>
	<rect x="18.815" fill="#0F0F0F" width="1.024" height="56.441"/>
	<rect x="4.79" fill="#0F0F0F" width="0.546" height="56.441"/>
	<rect x="22.577" fill="#0F0F0F" width="4.789" height="56.441"/>
	<rect x="32.77" fill="#0F0F0F" width="3.216" height="56.441"/>
	<rect x="42.485" fill="#0F0F0F" width="2.121" height="56.441"/>
	<rect x="45.7" fill="#0F0F0F" width="1.028" height="56.441"/>
	<rect x="39.749" fill="#0F0F0F" width="1.641" height="56.441"/>
	<rect x="36.534" fill="#0F0F0F" width="0.547" height="56.441"/>
	<rect x="51.586" fill="#0F0F0F" width="1.093" height="56.441"/>
	<rect x="37.628" fill="#0F0F0F" width="1.574" height="56.441"/>
	<rect x="30.103" fill="#0F0F0F" width="1.025" height="56.441"/>
	<rect x="60.751" fill="#0F0F0F" width="1.096" height="56.441"/>
	<rect x="65.608" fill="#0F0F0F" width="1.025" height="56.441"/>
	<rect x="20.387" fill="#0F0F0F" width="0.55" height="56.441"/>
	<rect x="5.886" fill="#0F0F0F" width="1.093" height="56.441"/>
	<rect x="7.526" fill="#0F0F0F" width="0.478" height="56.441"/>
	<rect x="16.626" fill="#0F0F0F" width="1.64" height="56.441"/>
	<rect x="21.483" fill="#0F0F0F" width="0.547" height="56.441"/>
	<rect x="52.679" fill="#0F0F0F" width="0.547" height="56.441"/>
	<rect x="48.368" fill="#0F0F0F" width="1.096" height="56.441"/>
	<rect x="68.277" fill="#0F0F0F" width="0.546" height="56.441"/>
	<rect x="28.459" fill="#0F0F0F" width="1.097" height="56.441"/>
	<rect x="54.253" fill="#0F0F0F" width="5.405" height="56.441"/>
	<rect x="69.37" fill="#0F0F0F" width="4.243" height="56.441"/>
	<rect x="79.017" fill="#0F0F0F" width="3.765" height="56.441"/>
	<rect x="63.42" fill="#0F0F0F" width="1.642" height="56.441"/>
	<rect x="83.875" fill="#0F0F0F" width="0.547" height="56.441"/>
	<rect x="76.35" fill="#0F0F0F" width="1.574" height="56.441"/>
	<rect x="88.732" fill="#0F0F0F" width="1.025" height="56.441"/>
	<rect x="84.969" fill="#0F0F0F" width="2.67" height="56.441"/>
	<rect x="74.706" fill="#0F0F0F" width="1.097" height="56.441"/>
	<polygon fill="#0F0F0F" points="4.447,63.146 3.695,63.146 0.55,58.699 0.55,63.146 -0.205,63.146 -0.205,57.537 0.615,57.537 
		3.695,61.981 3.695,57.537 4.447,57.537 	"/>
	<path fill="#0F0F0F" d="M8.346,57.466c0.891,0,1.507,0.207,2.053,0.754c0.55,0.547,0.823,1.231,0.823,2.121
		c0,0.889-0.273,1.575-0.823,2.122c-0.546,0.476-1.162,0.752-2.053,0.752c-0.819,0-1.503-0.276-2.05-0.752
		c-0.479-0.547-0.754-1.233-0.754-2.122c0-0.89,0.275-1.574,0.754-2.121C6.843,57.673,7.526,57.466,8.346,57.466L8.346,57.466z
		 M8.346,62.6L8.346,62.6c0.617,0,1.096-0.208,1.507-0.618c0.341-0.409,0.546-0.957,0.546-1.641c0-0.754-0.205-1.302-0.546-1.642
		c-0.411-0.412-0.89-0.616-1.507-0.616c-0.546,0-1.024,0.204-1.436,0.616c-0.41,0.34-0.546,0.888-0.546,1.642
		c0,0.684,0.136,1.231,0.546,1.641C7.321,62.392,7.8,62.6,8.346,62.6L8.346,62.6z"/>
	<rect x="12.314" y="62.325" fill="#0F0F0F" width="0.821" height="0.82"/>
	<path fill="#0F0F0F" d="M18.405,57.466c1.299,0,1.913,0.959,1.913,2.875c0,1.915-0.614,2.874-1.913,2.874
		c-1.302,0-1.916-0.959-1.916-2.874C16.489,58.425,17.104,57.466,18.405,57.466L18.405,57.466z M18.405,62.666L18.405,62.666
		c0.342,0,0.615-0.203,0.82-0.547c0.205-0.343,0.342-0.89,0.342-1.778c0-0.89-0.137-1.506-0.342-1.847
		c-0.205-0.342-0.479-0.48-0.82-0.48c-0.412,0-0.686,0.139-0.891,0.48c-0.137,0.341-0.273,0.957-0.273,1.847
		c0,0.889,0.137,1.436,0.273,1.778C17.72,62.463,17.993,62.666,18.405,62.666L18.405,62.666z"/>
	<path fill="#0F0F0F" d="M22.987,57.466c1.301,0,1.915,0.959,1.915,2.875c0,1.915-0.614,2.874-1.915,2.874
		c-1.299,0-1.914-0.959-1.914-2.874C21.073,58.425,21.688,57.466,22.987,57.466L22.987,57.466z M22.987,62.666L22.987,62.666
		c0.409,0,0.683-0.203,0.891-0.547c0.205-0.343,0.273-0.89,0.273-1.778c0-0.89-0.068-1.506-0.273-1.847
		c-0.208-0.342-0.481-0.48-0.891-0.48c-0.343,0-0.616,0.139-0.821,0.48c-0.204,0.341-0.273,0.957-0.273,1.847
		c0,0.889,0.069,1.436,0.273,1.778C22.371,62.463,22.645,62.666,22.987,62.666L22.987,62.666z"/>
	<path fill="#0F0F0F" d="M27.64,57.466c1.232,0,1.916,0.959,1.916,2.875c0,1.915-0.684,2.874-1.916,2.874
		c-1.299,0-1.985-0.959-1.985-2.874C25.654,58.425,26.341,57.466,27.64,57.466L27.64,57.466z M27.64,62.666L27.64,62.666
		c0.341,0,0.615-0.203,0.819-0.547c0.208-0.343,0.273-0.89,0.273-1.778c0-0.89-0.065-1.506-0.273-1.847
		c-0.204-0.342-0.479-0.48-0.819-0.48c-0.411,0-0.684,0.139-0.889,0.48c-0.205,0.341-0.274,0.957-0.274,1.847
		c0,0.889,0.069,1.436,0.274,1.778C26.956,62.463,27.229,62.666,27.64,62.666L27.64,62.666z"/>
	<path fill="#0F0F0F" d="M32.224,57.466c1.298,0,1.916,0.959,1.916,2.875c0,1.915-0.618,2.874-1.916,2.874
		c-1.301,0-1.916-0.959-1.916-2.874C30.308,58.425,30.923,57.466,32.224,57.466L32.224,57.466z M32.224,62.666L32.224,62.666
		c0.342,0,0.684-0.203,0.819-0.547c0.205-0.343,0.343-0.89,0.343-1.778c0-0.89-0.138-1.506-0.343-1.847
		c-0.136-0.342-0.478-0.48-0.819-0.48s-0.683,0.139-0.82,0.48c-0.205,0.341-0.344,0.957-0.344,1.847
		c0,0.889,0.139,1.436,0.344,1.778C31.541,62.463,31.882,62.666,32.224,62.666L32.224,62.666z"/>
	<path fill="#0F0F0F" d="M36.808,57.466c1.299,0,1.982,0.959,1.982,2.875c0,1.915-0.684,2.874-1.982,2.874
		c-1.232,0-1.916-0.959-1.916-2.874C34.892,58.425,35.575,57.466,36.808,57.466L36.808,57.466z M36.808,62.666L36.808,62.666
		c0.41,0,0.684-0.203,0.889-0.547c0.205-0.343,0.273-0.89,0.273-1.778c0-0.89-0.068-1.506-0.273-1.847
		c-0.205-0.342-0.479-0.48-0.889-0.48c-0.344,0-0.617,0.139-0.822,0.48c-0.205,0.341-0.273,0.957-0.273,1.847
		c0,0.889,0.068,1.436,0.273,1.778C36.19,62.463,36.464,62.666,36.808,62.666L36.808,62.666z"/>
	<path fill="#0F0F0F" d="M41.461,57.466c1.298,0,1.913,0.959,1.913,2.875c0,1.915-0.615,2.874-1.913,2.874
		c-1.302,0-1.985-0.959-1.985-2.874C39.476,58.425,40.159,57.466,41.461,57.466L41.461,57.466z M41.461,62.666L41.461,62.666
		c0.341,0,0.614-0.203,0.819-0.547c0.205-0.343,0.273-0.89,0.273-1.778c0-0.89-0.068-1.506-0.273-1.847
		c-0.205-0.342-0.479-0.48-0.819-0.48c-0.413,0-0.687,0.139-0.892,0.48c-0.205,0.341-0.273,0.957-0.273,1.847
		c0,0.889,0.068,1.436,0.273,1.778C40.774,62.463,41.048,62.666,41.461,62.666L41.461,62.666z"/>
	<path fill="#0F0F0F" d="M46.042,57.466c1.301,0,1.917,0.959,1.917,2.875c0,1.915-0.616,2.874-1.917,2.874
		c-1.299,0-1.914-0.959-1.914-2.874C44.128,58.425,44.743,57.466,46.042,57.466L46.042,57.466z M46.042,62.666L46.042,62.666
		c0.41,0,0.687-0.203,0.891-0.547c0.137-0.343,0.274-0.89,0.274-1.778c0-0.89-0.138-1.506-0.274-1.847
		c-0.204-0.342-0.48-0.48-0.891-0.48c-0.342,0-0.684,0.139-0.82,0.48c-0.205,0.341-0.342,0.957-0.342,1.847
		c0,0.889,0.137,1.436,0.342,1.778C45.358,62.463,45.7,62.666,46.042,62.666L46.042,62.666z"/>
	<path fill="#0F0F0F" d="M50.626,57.466c1.301,0,1.984,0.959,1.984,2.875c0,1.915-0.684,2.874-1.984,2.874
		c-1.23,0-1.915-0.959-1.915-2.874C48.711,58.425,49.396,57.466,50.626,57.466L50.626,57.466z M50.626,62.666L50.626,62.666
		c0.41,0,0.684-0.203,0.889-0.547c0.207-0.343,0.273-0.89,0.273-1.778c0-0.89-0.066-1.506-0.273-1.847
		c-0.205-0.342-0.479-0.48-0.889-0.48c-0.341,0-0.614,0.139-0.82,0.48c-0.205,0.341-0.272,0.957-0.272,1.847
		c0,0.889,0.067,1.436,0.272,1.778C50.012,62.463,50.285,62.666,50.626,62.666L50.626,62.666z"/>
	<path fill="#0F0F0F" d="M55.278,57.466c1.299,0,1.916,0.959,1.916,2.875c0,1.915-0.617,2.874-1.916,2.874
		c-1.301,0-1.916-0.959-1.916-2.874C53.362,58.425,53.978,57.466,55.278,57.466L55.278,57.466z M55.278,62.666L55.278,62.666
		c0.342,0,0.615-0.203,0.82-0.547c0.206-0.343,0.342-0.89,0.342-1.778c0-0.89-0.136-1.506-0.342-1.847
		c-0.205-0.342-0.479-0.48-0.82-0.48c-0.409,0-0.683,0.139-0.888,0.48c-0.138,0.341-0.276,0.957-0.276,1.847
		c0,0.889,0.139,1.436,0.276,1.778C54.596,62.463,54.869,62.666,55.278,62.666L55.278,62.666z"/>
	<path fill="#0F0F0F" d="M59.863,57.466c1.299,0,1.913,0.959,1.913,2.875c0,1.915-0.614,2.874-1.913,2.874
		c-1.302,0-1.917-0.959-1.917-2.874C57.946,58.425,58.562,57.466,59.863,57.466L59.863,57.466z M59.863,62.666L59.863,62.666
		c0.409,0,0.683-0.203,0.888-0.547c0.205-0.343,0.273-0.89,0.273-1.778c0-0.89-0.068-1.506-0.273-1.847
		c-0.205-0.342-0.479-0.48-0.888-0.48c-0.343,0-0.618,0.139-0.823,0.48c-0.204,0.341-0.273,0.957-0.273,1.847
		c0,0.889,0.069,1.436,0.273,1.778C59.245,62.463,59.521,62.666,59.863,62.666L59.863,62.666z"/>
	<path fill="#0F0F0F" d="M64.516,57.466c1.23,0,1.914,0.959,1.914,2.875c0,1.915-0.684,2.874-1.914,2.874
		c-1.301,0-1.985-0.959-1.985-2.874C62.53,58.425,63.215,57.466,64.516,57.466L64.516,57.466z M64.516,62.666L64.516,62.666
		c0.341,0,0.614-0.203,0.819-0.547c0.205-0.343,0.273-0.89,0.273-1.778c0-0.89-0.068-1.506-0.273-1.847
		c-0.205-0.342-0.479-0.48-0.819-0.48c-0.413,0-0.687,0.139-0.892,0.48c-0.204,0.341-0.273,0.957-0.273,1.847
		c0,0.889,0.069,1.436,0.273,1.778C63.829,62.463,64.103,62.666,64.516,62.666L64.516,62.666z"/>
	<path fill="#0F0F0F" d="M69.097,57.466c1.301,0,1.917,0.959,1.917,2.875c0,1.915-0.616,2.874-1.917,2.874
		c-1.298,0-1.913-0.959-1.913-2.874C67.184,58.425,67.799,57.466,69.097,57.466L69.097,57.466z M69.097,62.666L69.097,62.666
		c0.343,0,0.687-0.203,0.822-0.547c0.205-0.343,0.343-0.89,0.343-1.778c0-0.89-0.138-1.506-0.343-1.847
		c-0.136-0.342-0.479-0.48-0.822-0.48c-0.341,0-0.684,0.139-0.819,0.48c-0.206,0.341-0.342,0.957-0.342,1.847
		c0,0.889,0.136,1.436,0.342,1.778C68.413,62.463,68.756,62.666,69.097,62.666L69.097,62.666z"/>
	<path fill="#0F0F0F" d="M73.681,57.466c1.301,0,1.985,0.959,1.985,2.875c0,1.915-0.685,2.874-1.985,2.874
		c-1.23,0-1.915-0.959-1.915-2.874C71.766,58.425,72.45,57.466,73.681,57.466L73.681,57.466z M73.681,62.666L73.681,62.666
		c0.411,0,0.684-0.203,0.89-0.547c0.207-0.343,0.275-0.89,0.275-1.778c0-0.89-0.068-1.506-0.275-1.847
		c-0.206-0.342-0.479-0.48-0.89-0.48c-0.341,0-0.614,0.139-0.819,0.48c-0.206,0.341-0.273,0.957-0.273,1.847
		c0,0.889,0.067,1.436,0.273,1.778C73.066,62.463,73.34,62.666,73.681,62.666L73.681,62.666z"/>
	<path fill="#0F0F0F" d="M78.334,57.466c1.299,0,1.916,0.959,1.916,2.875c0,1.915-0.617,2.874-1.916,2.874
		c-1.301,0-1.984-0.959-1.984-2.874C76.35,58.425,77.033,57.466,78.334,57.466L78.334,57.466z M78.334,62.666L78.334,62.666
		c0.342,0,0.614-0.203,0.82-0.547c0.205-0.343,0.272-0.89,0.272-1.778c0-0.89-0.067-1.506-0.272-1.847
		c-0.206-0.342-0.479-0.48-0.82-0.48c-0.41,0-0.684,0.139-0.889,0.48c-0.208,0.341-0.273,0.957-0.273,1.847
		c0,0.889,0.065,1.436,0.273,1.778C77.65,62.463,77.924,62.666,78.334,62.666L78.334,62.666z"/>
	<path fill="#0F0F0F" d="M82.918,57.466c1.299,0,1.913,0.959,1.913,2.875c0,1.915-0.614,2.874-1.913,2.874
		c-1.301,0-1.917-0.959-1.917-2.874C81.001,58.425,81.617,57.466,82.918,57.466L82.918,57.466z M82.918,62.666L82.918,62.666
		c0.409,0,0.684-0.203,0.888-0.547c0.138-0.343,0.273-0.89,0.273-1.778c0-0.89-0.136-1.506-0.273-1.847
		c-0.204-0.342-0.479-0.48-0.888-0.48c-0.343,0-0.687,0.139-0.822,0.48c-0.205,0.341-0.343,0.957-0.343,1.847
		c0,0.889,0.138,1.436,0.343,1.778C82.231,62.463,82.575,62.666,82.918,62.666L82.918,62.666z"/>
	<path fill="#0F0F0F" d="M87.5,57.466c1.301,0,1.984,0.959,1.984,2.875c0,1.915-0.684,2.874-1.984,2.874
		c-1.23,0-1.914-0.959-1.914-2.874C85.586,58.425,86.27,57.466,87.5,57.466L87.5,57.466z M87.5,62.666L87.5,62.666
		c0.412,0,0.686-0.203,0.89-0.547c0.206-0.343,0.274-0.89,0.274-1.778c0-0.89-0.068-1.506-0.274-1.847
		c-0.204-0.342-0.478-0.48-0.89-0.48c-0.342,0-0.615,0.139-0.82,0.48c-0.205,0.341-0.273,0.957-0.273,1.847
		c0,0.889,0.068,1.436,0.273,1.778C86.885,62.463,87.158,62.666,87.5,62.666L87.5,62.666z"/>
</g>
<g>
</g>
<g>
</g>
<g>
</g>
<g>
</g>
<g>
</g>
<g>
</g>
<g>
</g>
<g>
</g>
<g>
</g>
<g>
</g>
<g>
</g>
<g>
</g>
<g>
</g>
<g>
</g>
<g>
</g>
</svg>
